<svg xmlns="http://www.w3.org/2000/svg"  viewBox="0 0 40 40" width="80px" height="80px"><path fill="#98ccfd" d="M23.5,20c0,1.935-1.565,3.5-3.5,3.5s-3.5-1.565-3.5-3.5s1.565-3.5,3.5-3.5S23.5,18.065,23.5,20z"/><path fill="#4788c7" d="M20,24c-2.206,0-4-1.794-4-4s1.794-4,4-4s4,1.794,4,4S22.206,24,20,24z M20,17c-1.654,0-3,1.346-3,3 s1.346,3,3,3s3-1.346,3-3S21.654,17,20,17z"/><g><path fill="#98ccfd" d="M39.5,20c0-2.796-2.912-5.232-7.492-6.787c0.576-2.671,0.655-5.055,0.166-6.881 c-0.408-1.522-1.181-2.617-2.296-3.253c-0.671-0.382-1.438-0.577-2.279-0.577c-2.207,0-4.893,1.401-7.597,3.791 C17.296,3.902,14.609,2.5,12.4,2.5c-0.842,0-1.608,0.194-2.279,0.577C9.006,3.714,8.232,4.81,7.825,6.333 c-0.489,1.826-0.41,4.21,0.165,6.88C3.412,14.768,0.5,17.205,0.5,20s2.912,5.232,7.491,6.786c-0.576,2.67-0.655,5.054-0.165,6.88 c0.407,1.524,1.181,2.619,2.297,3.257c0.671,0.382,1.438,0.577,2.279,0.577c0.001,0,0,0,0.001,0c2.208,0,4.894-1.401,7.598-3.793 c2.704,2.389,5.39,3.789,7.597,3.79c0.001,0,0.001,0,0.001,0c0.842,0,1.608-0.194,2.28-0.577c1.114-0.636,1.887-1.731,2.294-3.253 c0.489-1.826,0.41-4.21-0.165-6.88C36.587,25.233,39.5,22.796,39.5,20z M28.888,4.817c0.634,0.362,1.09,1.046,1.354,2.033 c0.401,1.496,0.322,3.509-0.158,5.79c-1.596-0.417-3.343-0.734-5.208-0.938c-1.11-1.502-2.269-2.855-3.44-4.041 c2.397-2.087,4.598-3.158,6.163-3.158C28.089,4.503,28.522,4.609,28.888,4.817z M25.784,23.287 c-0.653,1.117-1.324,2.152-2.003,3.119c-1.205,0.105-2.467,0.162-3.782,0.162c-1.316,0-2.578-0.058-3.784-0.162 c-0.679-0.967-1.35-2.002-2.003-3.119C13.576,22.197,13,21.096,12.481,20c0.519-1.095,1.095-2.197,1.732-3.287 c0.653-1.117,1.325-2.152,2.004-3.12c1.205-0.105,2.468-0.162,3.783-0.162c1.315,0,2.577,0.057,3.781,0.162 c0.679,0.968,1.35,2.002,2.003,3.119c0.637,1.09,1.214,2.192,1.733,3.287C26.998,21.096,26.421,22.197,25.784,23.287z M28.558,22.392c0.41,1.036,0.756,2.052,1.041,3.035c-0.99,0.258-2.057,0.478-3.194,0.655c0.377-0.582,0.748-1.174,1.106-1.787 C27.881,23.663,28.226,23.028,28.558,22.392z M20,30.983c-0.729-0.738-1.467-1.556-2.205-2.47c0.724,0.034,1.457,0.055,2.205,0.055 c0.747,0,1.48-0.021,2.203-0.055C21.466,29.427,20.729,30.246,20,30.983z M13.593,26.082c-1.136-0.177-2.203-0.397-3.193-0.655 c0.285-0.983,0.63-1.998,1.04-3.034c0.332,0.635,0.677,1.271,1.046,1.903C12.844,24.908,13.216,25.5,13.593,26.082z M11.44,17.607 c-0.41-1.036-0.755-2.051-1.04-3.034c0.99-0.258,2.057-0.478,3.194-0.655c-0.377,0.582-0.749,1.174-1.107,1.786 C12.117,16.337,11.772,16.972,11.44,17.607z M20.001,9.018c0.729,0.737,1.466,1.555,2.202,2.469 c-0.723-0.034-1.456-0.055-2.203-0.055s-1.48,0.021-2.203,0.055C18.534,10.573,19.272,9.755,20.001,9.018z M27.511,15.704 c-0.358-0.613-0.729-1.205-1.106-1.787c1.137,0.177,2.204,0.397,3.194,0.655c-0.285,0.984-0.631,1.999-1.041,3.036 C28.226,16.973,27.881,16.337,27.511,15.704z M9.757,6.851c0.265-0.989,0.721-1.674,1.355-2.037C11.478,4.606,11.911,4.5,12.4,4.5 c1.567,0,3.768,1.072,6.166,3.161c-1.172,1.187-2.332,2.539-3.443,4.042c-1.865,0.204-3.612,0.522-5.208,0.939 C9.435,10.359,9.356,8.346,9.757,6.851z M2.5,20c0-1.729,2.231-3.566,5.983-4.857C8.935,16.708,9.538,18.342,10.28,20 c-0.742,1.658-1.345,3.292-1.797,4.857C4.731,23.566,2.5,21.729,2.5,20z M12.401,35.5c-0.49,0-0.924-0.106-1.288-0.313 c-0.636-0.363-1.092-1.048-1.356-2.037c-0.401-1.496-0.322-3.509,0.158-5.79c1.596,0.417,3.342,0.734,5.207,0.938 c1.111,1.503,2.271,2.856,3.444,4.043C16.168,34.429,13.967,35.5,12.401,35.5z M30.241,33.15c-0.265,0.987-0.72,1.671-1.354,2.033 c-0.365,0.208-0.799,0.314-1.289,0.314c-1.566,0-3.767-1.071-6.164-3.157c1.172-1.187,2.331-2.54,3.441-4.042 c1.865-0.204,3.611-0.522,5.207-0.938C30.563,29.641,30.642,31.654,30.241,33.15z M31.515,24.858 c-0.452-1.565-1.055-3.199-1.797-4.858c0.742-1.659,1.345-3.293,1.797-4.858C35.268,16.433,37.5,18.271,37.5,20 C37.5,21.729,35.268,23.567,31.515,24.858z"/><path fill="#4788c7" d="M12.402,38c-0.93,0-1.78-0.216-2.528-0.642c-1.237-0.708-2.089-1.906-2.532-3.563 c-0.472-1.762-0.446-4.064,0.07-6.682C2.694,25.42,0,22.842,0,20s2.694-5.42,7.412-7.114c-0.517-2.617-0.542-4.92-0.07-6.682 C7.785,4.548,8.637,3.35,9.873,2.643c2.52-1.438,6.178-0.393,10.128,2.988c3.949-3.378,7.604-4.422,10.125-2.986 c1.235,0.705,2.087,1.902,2.531,3.558c0.472,1.763,0.446,4.066-0.071,6.683C37.305,14.579,40,17.158,40,20 c0,2.842-2.695,5.421-7.414,7.115c0.518,2.617,0.542,4.919,0.07,6.682c-0.443,1.656-1.294,2.853-2.529,3.558 C27.604,38.793,23.946,37.746,20,34.37C17.224,36.747,14.604,38,12.402,38z M12.4,3c-0.753,0-1.437,0.172-2.031,0.511 C9.373,4.081,8.68,5.074,8.309,6.462c-0.458,1.707-0.398,4.005,0.171,6.646l0.094,0.436l-0.422,0.144C3.606,15.23,1,17.531,1,20 s2.606,4.77,7.151,6.313l0.422,0.144l-0.094,0.436c-0.569,2.641-0.629,4.939-0.171,6.646c0.371,1.389,1.064,2.382,2.062,2.952 C10.965,36.828,11.648,37,12.401,37h0.001c2.012,0,4.592-1.302,7.267-3.667L20,33.04l0.331,0.293 c2.674,2.362,5.255,3.664,7.267,3.664c0.754,0,1.438-0.172,2.034-0.511c0.994-0.568,1.687-1.56,2.058-2.948 c0.458-1.707,0.398-4.004-0.171-6.645l-0.094-0.436l0.422-0.144C36.393,24.771,39,22.469,39,20c0-2.47-2.607-4.771-7.153-6.313 l-0.422-0.144l0.095-0.436c0.569-2.641,0.629-4.939,0.171-6.646c-0.372-1.389-1.065-2.38-2.061-2.948 c-0.595-0.339-1.278-0.511-2.031-0.511c-2.011,0-4.591,1.302-7.267,3.666l-0.331,0.293L19.67,6.668C16.994,4.303,14.413,3,12.4,3z M12.401,36c-0.577,0-1.094-0.127-1.535-0.379c-0.756-0.432-1.292-1.22-1.593-2.342c-0.408-1.527-0.355-3.61,0.152-6.022 l0.108-0.513l0.507,0.132c1.591,0.415,3.317,0.727,5.135,0.925l0.217,0.024L15.523,28c1.073,1.451,2.217,2.793,3.397,3.989 l0.374,0.379l-0.401,0.35C16.464,34.834,14.158,36,12.401,36z M10.303,27.973c-0.468,2.04-0.482,3.777-0.063,5.047 c0.278,0.841,0.605,1.438,1.121,1.732c1.294,0.739,3.813-0.237,6.473-2.446c-1.033-1.08-2.035-2.267-2.984-3.536 C13.257,28.588,11.73,28.32,10.303,27.973z M27.599,35.997c-1.757,0-4.063-1.165-6.491-3.28l-0.401-0.349l0.374-0.379 c1.185-1.202,2.327-2.543,3.394-3.988l0.13-0.176l0.218-0.024c1.819-0.199,3.548-0.51,5.137-0.925l0.508-0.132l0.107,0.513 c0.507,2.414,0.56,4.496,0.151,6.022c-0.301,1.121-0.836,1.908-1.589,2.338C28.693,35.87,28.176,35.997,27.599,35.997z M22.166,32.306c2.66,2.207,5.171,3.184,6.475,2.443c0.513-0.292,0.839-0.889,1.117-1.728c0.422-1.271,0.405-3.008-0.062-5.047 c-1.427,0.347-2.954,0.614-4.549,0.797C24.204,30.035,23.203,31.221,22.166,32.306z M20,31.695l-0.355-0.36 c-0.773-0.782-1.526-1.625-2.238-2.508l-0.7-0.867l1.112,0.053c1.431,0.068,2.931,0.068,4.361,0l1.111-0.053l-0.698,0.866 c-0.71,0.879-1.462,1.723-2.237,2.507L20,31.695z M18.898,29.054c0.359,0.417,0.728,0.822,1.102,1.212 c0.374-0.392,0.741-0.796,1.101-1.212C20.372,29.073,19.627,29.073,18.898,29.054z M20,27.068c-1.284,0-2.571-0.055-3.827-0.164 l-0.232-0.02l-0.134-0.191c-0.721-1.027-1.402-2.089-2.025-3.154c-0.619-1.061-1.209-2.179-1.753-3.325L11.927,20l0.102-0.214 c0.544-1.146,1.134-2.265,1.753-3.325c0.63-1.078,1.293-2.109,2.027-3.155l0.134-0.19l0.232-0.02c2.508-0.218,5.142-0.218,7.649,0 l0.232,0.02l0.134,0.191c0.736,1.05,1.399,2.082,2.025,3.154c0.625,1.07,1.215,2.188,1.753,3.326L28.069,20l-0.101,0.214 c-0.538,1.137-1.128,2.256-1.753,3.326c-0.626,1.072-1.289,2.104-2.025,3.154l-0.134,0.191l-0.232,0.02 C22.57,27.013,21.284,27.068,20,27.068z M16.491,25.928c2.309,0.187,4.71,0.187,7.015,0c0.667-0.961,1.272-1.91,1.847-2.893 c0.571-0.977,1.112-1.997,1.61-3.035c-0.498-1.038-1.039-2.058-1.61-3.035c-0.574-0.983-1.18-1.932-1.847-2.893 c-2.306-0.187-4.711-0.187-7.013,0c-0.665,0.958-1.271,1.906-1.849,2.894c-0.565,0.968-1.107,1.988-1.61,3.034 c0.503,1.045,1.044,2.065,1.61,3.035C15.215,24.01,15.836,24.982,16.491,25.928z M25.377,26.749l0.607-0.938 c0.373-0.576,0.74-1.162,1.095-1.767c0.366-0.626,0.707-1.255,1.035-1.883l0.506-0.968l0.402,1.016 c0.405,1.023,0.761,2.06,1.057,3.081l0.143,0.494l-0.497,0.129c-1.017,0.264-2.107,0.488-3.243,0.665L25.377,26.749z M28.479,23.6 c-0.174,0.316-0.353,0.633-0.537,0.949c-0.168,0.288-0.34,0.571-0.513,0.851c0.528-0.1,1.042-0.209,1.54-0.329 C28.819,24.581,28.655,24.09,28.479,23.6z M14.621,26.749l-1.105-0.172c-1.136-0.177-2.227-0.401-3.241-0.665l-0.497-0.129 l0.143-0.493c0.294-1.017,0.649-2.053,1.056-3.08l0.402-1.017l0.506,0.97c0.327,0.628,0.668,1.256,1.034,1.882 c0.354,0.605,0.722,1.191,1.095,1.767L14.621,26.749z M11.029,25.069c0.496,0.119,1.01,0.229,1.537,0.329 c-0.173-0.279-0.344-0.562-0.512-0.85c-0.185-0.315-0.362-0.631-0.536-0.948C11.342,24.092,11.179,24.582,11.029,25.069z M31.18,25.502l-0.146-0.505c-0.446-1.548-1.043-3.16-1.772-4.792L29.17,20l0.092-0.204c0.729-1.63,1.326-3.243,1.773-4.792 l0.146-0.505l0.498,0.171C35.637,16.031,38,18.024,38,20c0,1.977-2.363,3.969-6.322,5.331L31.18,25.502z M30.265,20 c0.63,1.427,1.159,2.84,1.579,4.209C34.993,23.039,37,21.412,37,20s-2.007-3.039-5.156-4.209 C31.424,17.162,30.894,18.574,30.265,20z M8.817,25.501L8.32,25.33C4.363,23.968,2,21.976,2,20s2.363-3.968,6.32-5.33l0.497-0.171 l0.146,0.505c0.449,1.554,1.045,3.167,1.772,4.792L10.828,20l-0.092,0.204c-0.728,1.625-1.323,3.238-1.772,4.792L8.817,25.501z M8.155,15.791C5.006,16.962,3,18.589,3,20s2.006,3.038,5.155,4.209c0.421-1.375,0.95-2.787,1.578-4.209 C9.105,18.578,8.576,17.166,8.155,15.791z M11.378,18.809l-0.402-1.017c-0.406-1.027-0.762-2.063-1.056-3.08l-0.143-0.493 l0.497-0.129c1.016-0.264,2.106-0.488,3.242-0.665l1.106-0.172l-0.61,0.939c-0.373,0.575-0.74,1.161-1.095,1.766 c-0.366,0.625-0.707,1.254-1.034,1.882L11.378,18.809z M11.029,14.931c0.149,0.487,0.313,0.978,0.489,1.469 c0.174-0.316,0.352-0.632,0.536-0.948c0.168-0.287,0.339-0.57,0.512-0.85C12.039,14.701,11.525,14.812,11.029,14.931z M28.62,18.809l-0.506-0.969c-0.328-0.629-0.669-1.257-1.035-1.883c-0.354-0.605-0.722-1.191-1.095-1.767l-0.607-0.938l1.104,0.172 c1.137,0.177,2.229,0.401,3.243,0.666l0.497,0.129l-0.143,0.494c-0.296,1.02-0.651,2.057-1.057,3.081L28.62,18.809z M27.43,14.601 c0.173,0.28,0.345,0.563,0.513,0.851c0.185,0.316,0.363,0.632,0.537,0.949c0.176-0.491,0.34-0.982,0.49-1.47 C28.473,14.811,27.958,14.701,27.43,14.601z M30.465,13.257l-0.507-0.132c-1.587-0.415-3.315-0.726-5.137-0.925l-0.218-0.024 l-0.13-0.176c-1.07-1.449-2.212-2.791-3.394-3.987l-0.374-0.379l0.401-0.35c3.229-2.811,6.243-3.919,8.027-2.901 c0.755,0.431,1.29,1.218,1.591,2.338c0.408,1.527,0.355,3.61-0.152,6.023L30.465,13.257z M25.147,11.229 c1.597,0.183,3.123,0.451,4.549,0.798c0.517-1.907,0.59-3.595,0.063-5.048c-0.302-0.83-0.604-1.435-1.119-1.729 c-1.298-0.74-3.812,0.236-6.473,2.444C23.2,8.775,24.201,9.962,25.147,11.229z M9.534,13.257l-0.108-0.513 c-0.508-2.413-0.561-4.495-0.152-6.022c0.301-1.123,0.836-1.911,1.591-2.341c1.789-1.02,4.801,0.091,8.03,2.904l0.402,0.35 l-0.375,0.379c-1.184,1.197-2.326,2.539-3.396,3.987l-0.13,0.176l-0.218,0.024c-1.818,0.199-3.547,0.51-5.137,0.925L9.534,13.257z M12.4,5c-0.401,0-0.751,0.083-1.041,0.249c-0.514,0.293-0.774,0.916-1.119,1.731c-0.54,1.275-0.449,3.011,0.063,5.047 c1.428-0.347,2.954-0.615,4.549-0.798c0.946-1.267,1.948-2.453,2.983-3.534C15.766,5.977,13.803,5,12.4,5z M16.709,12.039 l0.699-0.866c0.71-0.88,1.463-1.723,2.237-2.507l0.355-0.36l0.355,0.36c0.777,0.787,1.529,1.63,2.236,2.506l0.697,0.866 l-1.11-0.052c-1.43-0.067-2.93-0.067-4.359,0L16.709,12.039z M20,10.932c0.37,0,0.737,0.005,1.101,0.014 c-0.357-0.415-0.726-0.819-1.1-1.211c-0.374,0.391-0.742,0.795-1.101,1.211C19.264,10.937,19.63,10.932,20,10.932z"/></g></svg>