<svg width="42" height="46" viewBox="0 0 42 46" fill="none" xmlns="http://www.w3.org/2000/svg">
<path d="M0.4 21.28C1.68 21.1733 2.64 20.8267 3.28 20.24C3.94667 19.6533 4.28 18.8667 4.28 17.88C4.28 16.76 4.16 15.1467 3.92 13.04C3.65333 10.5333 3.52 8.70666 3.52 7.56C3.52 5.48 4.13333 3.86667 5.36 2.72C6.61333 1.54666 8.26667 0.959998 10.32 0.959998H13.08V5.68H11.4C9.74667 5.68 8.92 6.46667 8.92 8.04C8.92 8.78667 9.02667 10.28 9.24 12.52C9.26667 12.7867 9.33333 13.5467 9.44 14.8C9.54667 16.0267 9.6 17.12 9.6 18.08C9.6 19.4933 9.25333 20.6667 8.56 21.6C7.86667 22.5333 6.81333 23.1333 5.4 23.4V23.48C6.81333 23.7733 7.86667 24.3867 8.56 25.32C9.25333 26.2267 9.6 27.4 9.6 28.84C9.6 29.7467 9.54667 30.8267 9.44 32.08C9.33333 33.3067 9.26667 34.08 9.24 34.4C9.02667 36.64 8.92 38.12 8.92 38.84C8.92 39.6667 9.12 40.2667 9.52 40.64C9.92 41.0133 10.5467 41.2 11.4 41.2H13.08V45.96H10.32C8.26667 45.96 6.61333 45.3733 5.36 44.2C4.13333 43.0533 3.52 41.44 3.52 39.36C3.52 38.1867 3.65333 36.3467 3.92 33.84C4.16 31.7333 4.28 30.1333 4.28 29.04C4.28 28.0533 3.94667 27.2667 3.28 26.68C2.64 26.0933 1.68 25.7467 0.4 25.64V21.28ZM41.7638 25.64C40.4838 25.7467 39.5104 26.0933 38.8438 26.68C38.2038 27.2667 37.8838 28.0533 37.8838 29.04C37.8838 30.1333 38.0038 31.7333 38.2438 33.84C38.5104 36.3467 38.6438 38.1867 38.6438 39.36C38.6438 41.44 38.0171 43.0533 36.7638 44.2C35.5371 45.3733 33.8971 45.96 31.8438 45.96H29.0838V41.2H30.7638C31.6171 41.2 32.2438 41.0133 32.6438 40.64C33.0438 40.2667 33.2438 39.6667 33.2438 38.84C33.2438 38.12 33.1371 36.64 32.9238 34.4C32.8971 34.08 32.8304 33.3067 32.7238 32.08C32.6171 30.8267 32.5638 29.7467 32.5638 28.84C32.5638 27.4 32.9104 26.2267 33.6038 25.32C34.2971 24.3867 35.3504 23.7733 36.7638 23.48V23.4C35.3504 23.1333 34.2971 22.5333 33.6038 21.6C32.9104 20.6667 32.5638 19.4933 32.5638 18.08C32.5638 17.12 32.6171 16.0267 32.7238 14.8C32.8304 13.5467 32.8971 12.7867 32.9238 12.52C33.1371 10.28 33.2438 8.78667 33.2438 8.04C33.2438 6.46667 32.4171 5.68 30.7638 5.68H29.0838V0.959998H31.8438C33.8971 0.959998 35.5371 1.54666 36.7638 2.72C38.0171 3.86667 38.6438 5.48 38.6438 7.56C38.6438 8.70666 38.5104 10.5333 38.2438 13.04C38.0038 15.1467 37.8838 16.76 37.8838 17.88C37.8838 18.8667 38.2038 19.6533 38.8438 20.24C39.5104 20.8267 40.4838 21.1733 41.7638 21.28V25.64Z" fill="black"/>
</svg>
